<svg width="17" height="16" viewBox="0 0 17 16" fill="none" xmlns="http://www.w3.org/2000/svg">
<path d="M14.6564 7.32137H4.04305L10.3955 1.8928C10.4971 1.8053 10.4354 1.6428 10.3012 1.6428H8.69582C8.62508 1.6428 8.55796 1.6678 8.50536 1.71244L1.65045 7.5678C1.58767 7.62137 1.53732 7.68761 1.50281 7.76201C1.4683 7.83642 1.45044 7.91725 1.45044 7.99905C1.45044 8.08084 1.4683 8.16168 1.50281 8.23608C1.53732 8.31049 1.58767 8.37672 1.65045 8.4303L8.54526 14.3214C8.57247 14.3446 8.60512 14.3571 8.63959 14.3571H10.2993C10.4336 14.3571 10.4953 14.1928 10.3937 14.1071L4.04305 8.67851H14.6564C14.7363 8.67851 14.8016 8.61423 14.8016 8.53566V7.46423C14.8016 7.38565 14.7363 7.32137 14.6564 7.32137Z" fill="black" fill-opacity="0.85"/>
</svg>
